<svg xmlns="http://www.w3.org/2000/svg" width="14pt" height="16pt" viewBox="0 0 14 16"><path d="M0 14.5A1.5 1.5 0 001.5 16h11a1.5 1.5 0 001.5-1.5V6H0zm10-6.125c0-.207.168-.375.375-.375h1.25c.207 0 .375.168.375.375v1.25a.375.375 0 01-.375.375h-1.25A.375.375 0 0110 9.625zm0 4c0-.207.168-.375.375-.375h1.25c.207 0 .375.168.375.375v1.25a.375.375 0 01-.375.375h-1.25a.375.375 0 01-.375-.375zm-4-4C6 8.168 6.168 8 6.375 8h1.25c.207 0 .375.168.375.375v1.25a.375.375 0 01-.375.375h-1.25A.375.375 0 016 9.625zm0 4c0-.207.168-.375.375-.375h1.25c.207 0 .375.168.375.375v1.25a.375.375 0 01-.375.375h-1.25A.375.375 0 016 13.625zm-4-4C2 8.168 2.168 8 2.375 8h1.25c.207 0 .375.168.375.375v1.25a.375.375 0 01-.375.375h-1.25A.375.375 0 012 9.625zm0 4c0-.207.168-.375.375-.375h1.25c.207 0 .375.168.375.375v1.25a.375.375 0 01-.375.375h-1.25A.375.375 0 012 13.625zM12.5 2H11V.5c0-.273-.227-.5-.5-.5h-1c-.273 0-.5.227-.5.5V2H5V.5c0-.273-.227-.5-.5-.5h-1c-.273 0-.5.227-.5.5V2H1.5A1.5 1.5 0 000 3.5V5h14V3.5A1.5 1.5 0 0012.5 2zm0 0" fill="#fff" id="surface1"/></svg>