<svg xmlns="http://www.w3.org/2000/svg" width="44" height="44"><defs><filter id="filter" x="-51" y="-45" width="147" height="147" filterUnits="userSpaceOnUse"><feOffset result="offset" dy="6" in="SourceAlpha"/><feGaussianBlur result="blur" stdDeviation="7.071"/><feFlood result="flood" flood-color="#252525" flood-opacity=".05"/><feComposite result="composite" operator="in" in2="blur"/><feBlend result="blend" in="SourceGraphic"/></filter></defs><circle id="BG" cx="22" cy="22" r="22" fill="#fff" filter="url(#filter)"/><path id="Forma_1" data-name="Forma 1" d="M31.729 29.136l-4.487-4.487a8.616 8.616 0 01-2.592 2.592l4.486 4.486a1.833 1.833 0 102.593-2.591zm-4.352-9.093a7.333 7.333 0 10-7.333 7.333 7.335 7.335 0 007.334-7.333zm-7.333 5.5a5.5 5.5 0 115.5-5.5 5.506 5.506 0 01-5.5 5.5zm-4.278-5.5h1.222a3.059 3.059 0 013.055-3.055v-1.223a4.283 4.283 0 00-4.276 4.278z" fill="#a3bbc8" fill-rule="evenodd"/></svg>