<svg xmlns="http://www.w3.org/2000/svg" width="44" height="44"><defs><filter id="filter" x="-51" y="-45" width="147" height="147" filterUnits="userSpaceOnUse"><feOffset result="offset" dy="6" in="SourceAlpha"/><feGaussianBlur result="blur" stdDeviation="7.071"/><feFlood result="flood" flood-color="#252525" flood-opacity=".05"/><feComposite result="composite" operator="in" in2="blur"/><feBlend result="blend" in="SourceGraphic"/></filter></defs><circle id="BG" cx="22" cy="22" r="22" fill="#fff" filter="url(#filter)"/><path id="Forma_1" data-name="Forma 1" d="M33.234 19.38a6.073 6.073 0 00-1.808-4.009 5.742 5.742 0 00-4.047-1.682c-2.26 0-3.86 1.745-4.72 2.684l-.153.166-.081-.092c-.786-.9-2.421-2.758-4.828-2.758a5.743 5.743 0 00-4.047 1.682 6.073 6.073 0 00-1.808 4.009 6.678 6.678 0 001.242 4.241 28.491 28.491 0 004.657 4.642c1.667 1.38 3.863 3.024 4.855 3.024 1.008 0 3.2-1.642 4.854-3.018a28.377 28.377 0 004.64-4.649 6.749 6.749 0 001.244-4.24zm-2.323 3.53a26.446 26.446 0 01-4.332 4.319c-2.353 1.96-3.746 2.733-4.08 2.763-.334-.034-1.73-.814-4.095-2.779a26.487 26.487 0 01-4.338-4.3 5.462 5.462 0 01-1.03-3.46 4.7 4.7 0 014.564-4.472c1.821 0 3.145 1.508 3.856 2.318a1.483 1.483 0 001.035.738 1.68 1.68 0 001.125-.791c.776-.847 2.075-2.265 3.765-2.265a4.7 4.7 0 014.562 4.468 5.405 5.405 0 01-1.032 3.461z" fill="#a3bbc8" fill-rule="evenodd"/></svg>