<svg xmlns="http://www.w3.org/2000/svg" width="44" height="44"><defs><filter id="filter" x="-51" y="-45" width="147" height="147" filterUnits="userSpaceOnUse"><feOffset result="offset" dy="6" in="SourceAlpha"/><feGaussianBlur result="blur" stdDeviation="7.071"/><feFlood result="flood" flood-color="#252525" flood-opacity=".05"/><feComposite result="composite" operator="in" in2="blur"/><feBlend result="blend" in="SourceGraphic"/></filter></defs><circle id="BG" cx="22" cy="22" r="22" fill="#a3bbc8" filter="url(#filter)"/><path id="Forma_1" data-name="Forma 1" d="M12.529 14.3h2.281l3.249 11.77a.8.8 0 00.769.584h9.987a.8.8 0 00.729-.478l3.634-8.37a.809.809 0 00-.066-.758.792.792 0 00-.663-.358H21.415a.8.8 0 000 1.6h9.815l-2.944 6.774h-8.86l-3.249-11.77a.8.8 0 00-.769-.585h-2.879a.8.8 0 000 1.591zm5.544 17.962a1.807 1.807 0 10-1.8-1.807 1.807 1.807 0 001.8 1.81zm11.274 0h.133a1.865 1.865 0 10-.133.003z" fill="#fff" fill-rule="evenodd"/></svg>