<?xml version="1.0" encoding="UTF-8"?>
<svg xmlns="http://www.w3.org/2000/svg" xmlns:xlink="http://www.w3.org/1999/xlink" width="14pt" height="16pt" viewBox="0 0 14 16" version="1.1">
<g id="surface1">
<path style=" stroke:none;fill-rule:nonzero;fill:#fff;fill-opacity:1;" d="M 0 14.5 C 0 15.328125 0.671875 16 1.5 16 L 12.5 16 C 13.328125 16 14 15.328125 14 14.5 L 14 6 L 0 6 Z M 10 8.375 C 10 8.167969 10.167969 8 10.375 8 L 11.625 8 C 11.832031 8 12 8.167969 12 8.375 L 12 9.625 C 12 9.832031 11.832031 10 11.625 10 L 10.375 10 C 10.167969 10 10 9.832031 10 9.625 Z M 10 12.375 C 10 12.167969 10.167969 12 10.375 12 L 11.625 12 C 11.832031 12 12 12.167969 12 12.375 L 12 13.625 C 12 13.832031 11.832031 14 11.625 14 L 10.375 14 C 10.167969 14 10 13.832031 10 13.625 Z M 6 8.375 C 6 8.167969 6.167969 8 6.375 8 L 7.625 8 C 7.832031 8 8 8.167969 8 8.375 L 8 9.625 C 8 9.832031 7.832031 10 7.625 10 L 6.375 10 C 6.167969 10 6 9.832031 6 9.625 Z M 6 12.375 C 6 12.167969 6.167969 12 6.375 12 L 7.625 12 C 7.832031 12 8 12.167969 8 12.375 L 8 13.625 C 8 13.832031 7.832031 14 7.625 14 L 6.375 14 C 6.167969 14 6 13.832031 6 13.625 Z M 2 8.375 C 2 8.167969 2.167969 8 2.375 8 L 3.625 8 C 3.832031 8 4 8.167969 4 8.375 L 4 9.625 C 4 9.832031 3.832031 10 3.625 10 L 2.375 10 C 2.167969 10 2 9.832031 2 9.625 Z M 2 12.375 C 2 12.167969 2.167969 12 2.375 12 L 3.625 12 C 3.832031 12 4 12.167969 4 12.375 L 4 13.625 C 4 13.832031 3.832031 14 3.625 14 L 2.375 14 C 2.167969 14 2 13.832031 2 13.625 Z M 12.5 2 L 11 2 L 11 0.5 C 11 0.226562 10.773438 0 10.5 0 L 9.5 0 C 9.226562 0 9 0.226562 9 0.5 L 9 2 L 5 2 L 5 0.5 C 5 0.226562 4.773438 0 4.5 0 L 3.5 0 C 3.226562 0 3 0.226562 3 0.5 L 3 2 L 1.5 2 C 0.671875 2 0 2.671875 0 3.5 L 0 5 L 14 5 L 14 3.5 C 14 2.671875 13.328125 2 12.5 2 Z M 12.5 2 "/>
</g>
</svg>
