<svg xmlns="http://www.w3.org/2000/svg" xmlns:xlink="http://www.w3.org/1999/xlink" width="44" height="44" viewBox="0 0 44 44">
  <defs>
    <style>
      .cls-1 {
        fill: #fff;
        filter: url(#filter);
      }

      .cls-2 {
        fill: #a3bbc8;
        fill-rule: evenodd;
      }
    </style>
    <filter id="filter" x="-51" y="-45" width="147" height="147" filterUnits="userSpaceOnUse">
      <feOffset result="offset" dy="6" in="SourceAlpha"/>
      <feGaussianBlur result="blur" stdDeviation="7.071"/>
      <feFlood result="flood" flood-color="#252525" flood-opacity="0.05"/>
      <feComposite result="composite" operator="in" in2="blur"/>
      <feBlend result="blend" in="SourceGraphic"/>
    </filter>
  </defs>
  <circle id="BG" class="cls-1" cx="22" cy="22" r="22"/>
  <path id="Forma_1" data-name="Forma 1" class="cls-2" d="M31.729,29.136l-4.487-4.487a8.616,8.616,0,0,1-2.592,2.592l4.486,4.486A1.833,1.833,0,1,0,31.729,29.136Zm-4.352-9.093a7.333,7.333,0,1,0-7.333,7.333A7.335,7.335,0,0,0,27.378,20.043Zm-7.333,5.5a5.5,5.5,0,1,1,5.5-5.5A5.506,5.506,0,0,1,20.044,25.543Zm-4.278-5.5h1.222a3.059,3.059,0,0,1,3.055-3.055V15.765A4.283,4.283,0,0,0,15.767,20.043Z"/>
</svg>
